<?xml version="1.0" encoding="UTF-8"?>
<!DOCTYPE svg PUBLIC "-//W3C//DTD SVG 1.1//EN" "http://www.w3.org/Graphics/SVG/1.1/DTD/svg11.dtd">
<svg xmlns="http://www.w3.org/2000/svg" version="1.1" width="512px" height="512px" style="shape-rendering:geometricPrecision; text-rendering:geometricPrecision; image-rendering:optimizeQuality; fill-rule:evenodd; clip-rule:evenodd" xmlns:xlink="http://www.w3.org/1999/xlink">
<g><path style="opacity:0.298" fill="#72d7f7" d="M 157.5,41.5 C 157.5,57.5 157.5,73.5 157.5,89.5C 131.533,97.5624 109.366,111.562 91,131.5C 86.5436,137.456 82.7103,143.79 79.5,150.5C 70.6448,128.069 73.4781,107.069 88,87.5C 106.498,65.1779 129.665,49.8446 157.5,41.5 Z"/></g>
<g><path style="opacity:0.997" fill="#dae5f9" d="M 367.5,184.5 C 365.708,184.634 364.042,184.301 362.5,183.5C 362.167,183.5 361.833,183.5 361.5,183.5C 360.514,170.887 357.347,158.887 352,147.5C 333.872,169.32 310.705,182.487 282.5,187C 272.195,188.059 261.861,188.726 251.5,189C 246.924,204.762 246.257,220.596 249.5,236.5C 249.522,240.611 250.189,244.611 251.5,248.5C 265.935,254.308 280.602,254.974 295.5,250.5C 295.833,250.5 296.167,250.5 296.5,250.5C 301.135,256.469 306.135,262.136 311.5,267.5C 313.605,279.55 319.938,282.384 330.5,276C 340.216,268.726 345.216,259.226 345.5,247.5C 349.756,242.516 353.423,237.016 356.5,231C 356.355,230.228 356.022,229.561 355.5,229C 350.846,227.393 346.18,225.893 341.5,224.5C 339.833,223.833 338.167,223.167 336.5,222.5C 336.5,222.167 336.5,221.833 336.5,221.5C 340.785,220.705 345.119,220.372 349.5,220.5C 349.833,220.5 350.167,220.5 350.5,220.5C 355.5,225.833 360.5,231.167 365.5,236.5C 365.5,236.833 365.5,237.167 365.5,237.5C 362.258,252.801 357.924,267.801 352.5,282.5C 351.5,282.833 350.833,283.5 350.5,284.5C 310.312,293.617 269.646,296.617 228.5,293.5C 228.822,299.358 228.489,305.025 227.5,310.5C 210.826,302.499 199.493,289.832 193.5,272.5C 193.05,264.039 193.716,255.706 195.5,247.5C 201.24,241.858 203.24,235.191 201.5,227.5C 199.41,211.436 191.41,199.436 177.5,191.5C 169.793,187.044 162.459,187.711 155.5,193.5C 152.634,195.432 149.634,197.099 146.5,198.5C 142.775,177.863 142.609,157.197 146,136.5C 149.158,122.192 154.992,109.192 163.5,97.5C 186.265,98.9406 207.265,105.774 226.5,118C 237.625,127.726 249.292,136.726 261.5,145C 266.38,147.607 271.38,149.94 276.5,152C 298.276,156.966 310.276,148.466 312.5,126.5C 311.442,110.218 304.442,97.0517 291.5,87C 272.632,73.7315 251.965,64.5649 229.5,59.5C 301.705,50.486 346.205,81.1527 363,151.5C 365.202,162.414 366.702,173.414 367.5,184.5 Z"/></g>
<g><path style="opacity:0.998" fill="#ccdbf4" d="M 229.5,59.5 C 251.965,64.5649 272.632,73.7315 291.5,87C 304.442,97.0517 311.442,110.218 312.5,126.5C 310.276,148.466 298.276,156.966 276.5,152C 271.38,149.94 266.38,147.607 261.5,145C 249.292,136.726 237.625,127.726 226.5,118C 207.265,105.774 186.265,98.9406 163.5,97.5C 163.384,94.0897 165.05,92.7564 168.5,93.5C 191.384,95.5184 212.384,103.018 231.5,116C 244.386,127.552 258.386,137.552 273.5,146C 297.489,153.11 308.989,144.277 308,119.5C 302.167,103.671 292,91.5042 277.5,83C 261.08,74.0831 243.747,67.7497 225.5,64C 224.748,63.3292 224.414,62.4959 224.5,61.5C 225.108,58.3656 226.774,57.6989 229.5,59.5 Z"/></g>
<g><path style="opacity:1" fill="#eaf1fe" d="M 224.5,61.5 C 224.414,62.4959 224.748,63.3292 225.5,64C 243.747,67.7497 261.08,74.0831 277.5,83C 292,91.5042 302.167,103.671 308,119.5C 308.989,144.277 297.489,153.11 273.5,146C 258.386,137.552 244.386,127.552 231.5,116C 212.384,103.018 191.384,95.5184 168.5,93.5C 183.782,77.1842 202.449,66.5176 224.5,61.5 Z"/></g>
<g><path style="opacity:0.825" fill="#95e2fd" d="M 157.5,41.5 C 129.665,49.8446 106.498,65.1779 88,87.5C 73.4781,107.069 70.6448,128.069 79.5,150.5C 85.4458,163.631 93.9458,174.964 105,184.5C 105.692,185.437 105.525,186.103 104.5,186.5C 86.6214,173.068 75.6214,155.402 71.5,133.5C 70.2724,113.725 76.1058,96.3913 89,81.5C 107.381,61.6404 129.548,47.6404 155.5,39.5C 156.713,39.7472 157.38,40.4138 157.5,41.5 Z"/></g>
<g><path style="opacity:0.296" fill="#72d7f8" d="M 71.5,133.5 C 75.6214,155.402 86.6214,173.068 104.5,186.5C 104.667,202.503 104.5,218.503 104,234.5C 87.275,221.718 76.6083,205.051 72,184.5C 71.5001,167.503 71.3334,150.503 71.5,133.5 Z"/></g>
<g><path style="opacity:1" fill="#5091fe" d="M 361.5,183.5 C 358.574,182.302 355.574,181.302 352.5,180.5C 345.677,178.758 340.51,181.092 337,187.5C 332.716,193.475 332.549,199.475 336.5,205.5C 326.427,204.565 316.761,206.065 307.5,210C 306.748,210.671 306.414,211.504 306.5,212.5C 302.838,211.168 299.172,209.835 295.5,208.5C 293.262,207.463 290.929,207.297 288.5,208C 279.116,213.908 275.782,222.075 278.5,232.5C 268.553,233.648 258.886,234.981 249.5,236.5C 246.257,220.596 246.924,204.762 251.5,189C 261.861,188.726 272.195,188.059 282.5,187C 310.705,182.487 333.872,169.32 352,147.5C 357.347,158.887 360.514,170.887 361.5,183.5 Z"/></g>
<g><path style="opacity:0.403" fill="#96e1fe" d="M 227.5,435.5 C 230.962,434.518 234.629,434.185 238.5,434.5C 238.5,443.167 238.5,451.833 238.5,460.5C 241.5,460.5 244.5,460.5 247.5,460.5C 301.823,463.434 353.49,453.267 402.5,430C 424.715,418.783 442.882,402.949 457,382.5C 462.128,373.451 465.461,363.784 467,353.5C 467.667,312.833 467.667,272.167 467,231.5C 444.544,256.495 417.377,274.661 385.5,286C 372.465,290.957 359.131,294.791 345.5,297.5C 347.448,293.271 349.115,288.938 350.5,284.5C 350.833,283.5 351.5,282.833 352.5,282.5C 389.468,274.27 421.634,257.27 449,231.5C 459.511,220.634 467.178,207.967 472,193.5C 472.5,179.171 472.667,164.837 472.5,150.5C 473.833,150.5 475.167,150.5 476.5,150.5C 477.653,155.77 478.487,161.103 479,166.5C 479.022,229.832 478.688,293.166 478,356.5C 473.322,380.85 461.488,401.016 442.5,417C 409.153,442.829 371.486,459.163 329.5,466C 295.687,471.454 261.687,472.954 227.5,470.5C 227.5,458.833 227.5,447.167 227.5,435.5 Z"/></g>
<g><path style="opacity:1" fill="#99efcd" d="M 352.5,180.5 C 356.244,189.913 353.911,197.746 345.5,204C 342.937,205.079 340.271,205.579 337.5,205.5C 337.167,205.5 336.833,205.5 336.5,205.5C 332.549,199.475 332.716,193.475 337,187.5C 340.51,181.092 345.677,178.758 352.5,180.5 Z"/></g>
<g><path style="opacity:1" fill="#4ab2ca" d="M 352.5,180.5 C 355.574,181.302 358.574,182.302 361.5,183.5C 361.833,183.5 362.167,183.5 362.5,183.5C 362.5,184.833 362.5,186.167 362.5,187.5C 361.504,187.414 360.671,187.748 360,188.5C 355.058,196.735 349.892,204.735 344.5,212.5C 341.833,210.5 339.5,208.167 337.5,205.5C 340.271,205.579 342.937,205.079 345.5,204C 353.911,197.746 356.244,189.913 352.5,180.5 Z"/></g>
<g><path style="opacity:1" fill="#48abcf" d="M 362.5,187.5 C 363.585,196.981 362.085,205.981 358,214.5C 355.886,217.121 353.386,219.121 350.5,220.5C 350.167,220.5 349.833,220.5 349.5,220.5C 347.86,217.851 346.193,215.184 344.5,212.5C 349.892,204.735 355.058,196.735 360,188.5C 360.671,187.748 361.504,187.414 362.5,187.5 Z"/></g>
<g><path style="opacity:1" fill="#487bef" d="M 177.5,191.5 C 174.534,193.988 171.201,195.988 167.5,197.5C 163.478,195.937 159.478,194.604 155.5,193.5C 162.459,187.711 169.793,187.044 177.5,191.5 Z"/></g>
<g><path style="opacity:1" fill="#3b64df" d="M 177.5,191.5 C 191.41,199.436 199.41,211.436 201.5,227.5C 201.785,229.288 201.452,230.955 200.5,232.5C 197.661,234.42 194.661,236.087 191.5,237.5C 189.073,220.618 181.073,207.285 167.5,197.5C 171.201,195.988 174.534,193.988 177.5,191.5 Z"/></g>
<g><path style="opacity:0.967" fill="#518ffc" d="M 155.5,193.5 C 159.478,194.604 163.478,195.937 167.5,197.5C 181.073,207.285 189.073,220.618 191.5,237.5C 194.661,236.087 197.661,234.42 200.5,232.5C 201.452,230.955 201.785,229.288 201.5,227.5C 203.24,235.191 201.24,241.858 195.5,247.5C 189.996,251.252 183.996,253.918 177.5,255.5C 168.208,254.396 160.708,250.063 155,242.5C 145.872,231.446 142.205,218.779 144,204.5C 144.573,202.359 145.406,200.359 146.5,198.5C 149.634,197.099 152.634,195.432 155.5,193.5 Z"/></g>
<g><path style="opacity:1" fill="#a5e6de" d="M 362.5,183.5 C 364.042,184.301 365.708,184.634 367.5,184.5C 367.5,184.833 367.5,185.167 367.5,185.5C 367.888,202.554 367.221,219.554 365.5,236.5C 360.5,231.167 355.5,225.833 350.5,220.5C 353.386,219.121 355.886,217.121 358,214.5C 362.085,205.981 363.585,196.981 362.5,187.5C 362.5,186.167 362.5,184.833 362.5,183.5 Z"/></g>
<g><path style="opacity:1" fill="#4a7def" d="M 155.5,203.5 C 154.245,219.483 159.912,232.316 172.5,242C 175.438,244.257 178.771,245.424 182.5,245.5C 178.147,249.309 173.48,249.476 168.5,246C 154.491,235.958 148.658,222.458 151,205.5C 152.019,204.313 153.186,203.313 154.5,202.5C 155.107,202.624 155.44,202.957 155.5,203.5 Z"/></g>
<g><path style="opacity:1" fill="#fbfcfe" d="M 182.5,245.5 C 178.771,245.424 175.438,244.257 172.5,242C 159.912,232.316 154.245,219.483 155.5,203.5C 158.7,201.258 162.033,201.424 165.5,204C 180.265,214.333 185.931,228.167 182.5,245.5 Z"/></g>
<g><path style="opacity:1" fill="#457bee" d="M 336.5,205.5 C 336.833,205.5 337.167,205.5 337.5,205.5C 339.5,208.167 341.833,210.5 344.5,212.5C 346.193,215.184 347.86,217.851 349.5,220.5C 345.119,220.372 340.785,220.705 336.5,221.5C 331.017,220.784 325.683,219.45 320.5,217.5C 316.833,216.167 313.167,214.833 309.5,213.5C 308.391,213.443 307.391,213.11 306.5,212.5C 306.414,211.504 306.748,210.671 307.5,210C 316.761,206.065 326.427,204.565 336.5,205.5 Z"/></g>
<g><path style="opacity:1" fill="#99eecd" d="M 295.5,208.5 C 299.554,219.166 296.554,227.333 286.5,233C 284.527,233.495 282.527,233.662 280.5,233.5C 279.833,233.167 279.167,232.833 278.5,232.5C 275.782,222.075 279.116,213.908 288.5,208C 290.929,207.297 293.262,207.463 295.5,208.5 Z"/></g>
<g><path style="opacity:0.249" fill="#4febbc" d="M 367.5,185.5 C 377.227,188.298 386.893,191.298 396.5,194.5C 396.238,195.978 396.571,197.311 397.5,198.5C 398.396,197.494 399.062,197.494 399.5,198.5C 398.316,200.046 397.316,201.713 396.5,203.5C 396.467,202.011 395.967,200.678 395,199.5C 394.576,201.515 393.742,203.349 392.5,205C 392.611,206.722 393.111,206.888 394,205.5C 394.667,206.167 394.667,206.833 394,207.5C 392.615,208.551 391.615,209.884 391,211.5C 390.667,210.833 390.333,210.167 390,209.5C 389.173,210.662 388.34,211.829 387.5,213C 387.611,214.722 388.111,214.888 389,213.5C 388.602,215.631 387.602,217.631 386,219.5C 380.46,217.974 377.127,220.307 376,226.5C 377.615,224.095 378.281,224.095 378,226.5C 373.784,227.638 371.451,230.305 371,234.5C 372.615,232.095 373.281,232.095 373,234.5C 371.491,235.09 369.991,235.756 368.5,236.5C 371.229,238.367 370.896,239.367 367.5,239.5C 367.167,238.5 366.5,237.833 365.5,237.5C 365.5,237.167 365.5,236.833 365.5,236.5C 367.221,219.554 367.888,202.554 367.5,185.5 Z"/></g>
<g><path style="opacity:1" fill="#48afcc" d="M 295.5,208.5 C 299.172,209.835 302.838,211.168 306.5,212.5C 307.391,213.11 308.391,213.443 309.5,213.5C 303.789,224.291 297.122,234.291 289.5,243.5C 286.529,240.192 283.529,236.859 280.5,233.5C 282.527,233.662 284.527,233.495 286.5,233C 296.554,227.333 299.554,219.166 295.5,208.5 Z"/></g>
<g><path style="opacity:1" fill="#47a6d3" d="M 309.5,213.5 C 313.167,214.833 316.833,216.167 320.5,217.5C 316.458,224.785 311.958,231.785 307,238.5C 306.308,239.437 306.475,240.103 307.5,240.5C 304.431,244.572 300.765,247.906 296.5,250.5C 296.167,250.5 295.833,250.5 295.5,250.5C 293.5,248.167 291.5,245.833 289.5,243.5C 297.122,234.291 303.789,224.291 309.5,213.5 Z"/></g>
<g><path style="opacity:1" fill="#4a9fdc" d="M 320.5,217.5 C 325.683,219.45 331.017,220.784 336.5,221.5C 336.5,221.833 336.5,222.167 336.5,222.5C 331.807,222.898 327.474,224.398 323.5,227C 317.708,230.959 312.374,235.459 307.5,240.5C 306.475,240.103 306.308,239.437 307,238.5C 311.958,231.785 316.458,224.785 320.5,217.5 Z"/></g>
<g><path style="opacity:0.184" fill="#52f0ca" d="M 396.5,194.5 C 400.755,196.363 405.088,198.03 409.5,199.5C 405.219,208.051 400.385,216.384 395,224.5C 393.324,223.939 391.991,222.939 391,221.5C 391.821,225.453 390.488,228.786 387,231.5C 386.667,230.833 386.333,230.167 386,229.5C 385.349,231.235 385.515,232.902 386.5,234.5C 385.349,235.731 384.183,235.731 383,234.5C 379.612,236.851 379.112,239.518 381.5,242.5C 380.624,243.251 379.624,243.751 378.5,244C 377.594,246.463 377.594,248.63 378.5,250.5C 374.5,247.167 370.833,243.5 367.5,239.5C 370.896,239.367 371.229,238.367 368.5,236.5C 369.991,235.756 371.491,235.09 373,234.5C 373.281,232.095 372.615,232.095 371,234.5C 371.451,230.305 373.784,227.638 378,226.5C 378.281,224.095 377.615,224.095 376,226.5C 377.127,220.307 380.46,217.974 386,219.5C 387.602,217.631 388.602,215.631 389,213.5C 388.111,214.888 387.611,214.722 387.5,213C 388.34,211.829 389.173,210.662 390,209.5C 390.333,210.167 390.667,210.833 391,211.5C 391.615,209.884 392.615,208.551 394,207.5C 394.667,206.833 394.667,206.167 394,205.5C 393.111,206.888 392.611,206.722 392.5,205C 393.742,203.349 394.576,201.515 395,199.5C 395.967,200.678 396.467,202.011 396.5,203.5C 397.316,201.713 398.316,200.046 399.5,198.5C 399.062,197.494 398.396,197.494 397.5,198.5C 396.571,197.311 396.238,195.978 396.5,194.5 Z"/></g>
<g><path style="opacity:0.096" fill="#5af4d9" d="M 409.5,199.5 C 413.082,200.249 416.416,201.582 419.5,203.5C 408.198,221.966 396.698,240.3 385,258.5C 382.218,256.229 380.051,253.563 378.5,250.5C 377.594,248.63 377.594,246.463 378.5,244C 379.624,243.751 380.624,243.251 381.5,242.5C 379.112,239.518 379.612,236.851 383,234.5C 384.183,235.731 385.349,235.731 386.5,234.5C 385.515,232.902 385.349,231.235 386,229.5C 386.333,230.167 386.667,230.833 387,231.5C 390.488,228.786 391.821,225.453 391,221.5C 391.991,222.939 393.324,223.939 395,224.5C 400.385,216.384 405.219,208.051 409.5,199.5 Z"/></g>
<g><path style="opacity:0.896" fill="#f4fbfe" d="M 247.5,460.5 C 245.052,459.527 242.385,459.194 239.5,459.5C 239.5,445.167 239.5,430.833 239.5,416.5C 252.327,415.381 264.993,413.714 277.5,411.5C 308.257,410.345 338.257,405.011 367.5,395.5C 367.833,395.167 368.167,394.833 368.5,394.5C 367.667,394.167 366.833,393.833 366,393.5C 342.06,401.11 317.56,405.777 292.5,407.5C 303.057,402.698 313.723,396.865 324.5,390C 338.661,378.842 346.327,364.342 347.5,346.5C 370.256,341.142 391.589,332.475 411.5,320.5C 410.277,319.386 408.944,319.219 407.5,320C 384.532,332.547 360.199,341.547 334.5,347C 333.567,348.608 334.233,349.441 336.5,349.5C 338.135,348.954 339.801,348.62 341.5,348.5C 337.934,356.584 332.6,363.417 325.5,369C 321.32,371.696 317.32,374.53 313.5,377.5C 296.331,380.616 278.998,381.949 261.5,381.5C 261.5,382.5 261.5,383.5 261.5,384.5C 272.831,384.093 284.164,383.759 295.5,383.5C 298.598,383.413 298.932,383.913 296.5,385C 278.119,391.91 259.119,395.41 239.5,395.5C 239.5,388.167 239.5,380.833 239.5,373.5C 239.5,373.167 239.5,372.833 239.5,372.5C 252.659,372.544 265.326,370.044 277.5,365C 282.73,362.894 287.397,360.061 291.5,356.5C 299.39,354.945 307.39,353.945 315.5,353.5C 315.5,352.5 315.5,351.5 315.5,350.5C 311.202,351.2 306.869,351.533 302.5,351.5C 301.127,351.657 299.793,351.49 298.5,351C 303.26,345.312 306.26,338.812 307.5,331.5C 298.441,331.846 289.441,331.346 280.5,330C 282.708,329.809 284.708,329.309 286.5,328.5C 308.518,327.129 330.185,323.629 351.5,318C 352.741,316.513 352.241,315.68 350,315.5C 321.689,323.204 292.855,326.871 263.5,326.5C 255.477,323.817 247.477,320.817 239.5,317.5C 239.5,317.167 239.5,316.833 239.5,316.5C 239.5,313.5 239.5,310.5 239.5,307.5C 275.439,308.96 310.773,305.627 345.5,297.5C 359.131,294.791 372.465,290.957 385.5,286C 417.377,274.661 444.544,256.495 467,231.5C 467.667,272.167 467.667,312.833 467,353.5C 465.461,363.784 462.128,373.451 457,382.5C 442.882,402.949 424.715,418.783 402.5,430C 353.49,453.267 301.823,463.434 247.5,460.5 Z"/></g>
<g><path style="opacity:1" fill="#467bef" d="M 278.5,232.5 C 279.167,232.833 279.833,233.167 280.5,233.5C 283.529,236.859 286.529,240.192 289.5,243.5C 291.5,245.833 293.5,248.167 295.5,250.5C 280.602,254.974 265.935,254.308 251.5,248.5C 250.189,244.611 249.522,240.611 249.5,236.5C 258.886,234.981 268.553,233.648 278.5,232.5 Z"/></g>
<g><path style="opacity:1" fill="#b7e7ea" d="M 336.5,222.5 C 338.167,223.167 339.833,223.833 341.5,224.5C 341.509,226.308 341.009,227.975 340,229.5C 332.433,240.956 325.1,252.622 318,264.5C 315.955,265.926 313.788,266.926 311.5,267.5C 306.135,262.136 301.135,256.469 296.5,250.5C 300.765,247.906 304.431,244.572 307.5,240.5C 312.374,235.459 317.708,230.959 323.5,227C 327.474,224.398 331.807,222.898 336.5,222.5 Z"/></g>
<g><path style="opacity:1" fill="#3e454a" d="M 195.5,247.5 C 193.716,255.706 193.05,264.039 193.5,272.5C 188.651,284.212 184.484,296.212 181,308.5C 179.227,328.407 187.727,341.907 206.5,349C 213.02,351.403 219.687,353.237 226.5,354.5C 227.496,360.463 227.829,366.463 227.5,372.5C 226.167,372.5 224.833,372.5 223.5,372.5C 206.07,371.634 190.07,366.467 175.5,357C 165.922,350.349 160.589,341.183 159.5,329.5C 161.964,318.11 164.631,306.776 167.5,295.5C 169.633,288.633 171.3,281.633 172.5,274.5C 174.364,268.238 176.031,261.904 177.5,255.5C 183.996,253.918 189.996,251.252 195.5,247.5 Z"/></g>
<g><path style="opacity:1" fill="#549afb" d="M 345.5,247.5 C 345.216,259.226 340.216,268.726 330.5,276C 319.938,282.384 313.605,279.55 311.5,267.5C 327.039,267.957 338.373,261.29 345.5,247.5 Z"/></g>
<g><path style="opacity:1" fill="#c9e7f4" d="M 341.5,224.5 C 346.18,225.893 350.846,227.393 355.5,229C 356.022,229.561 356.355,230.228 356.5,231C 353.423,237.016 349.756,242.516 345.5,247.5C 338.373,261.29 327.039,267.957 311.5,267.5C 313.788,266.926 315.955,265.926 318,264.5C 325.1,252.622 332.433,240.956 340,229.5C 341.009,227.975 341.509,226.308 341.5,224.5 Z"/></g>
<g><path style="opacity:0.953" fill="#fba2a3" d="M 436.5,271.5 C 437.497,271.47 438.164,271.97 438.5,273C 430.5,281.181 421.5,288.181 411.5,294C 399.634,300.601 387.3,306.101 374.5,310.5C 373.833,310.167 373.167,309.833 372.5,309.5C 389.187,302.657 405.187,294.49 420.5,285C 426.317,281.011 431.651,276.511 436.5,271.5 Z"/></g>
<g><path style="opacity:0.989" fill="#eaf1fe" d="M 172.5,274.5 C 171.3,281.633 169.633,288.633 167.5,295.5C 138.373,314.547 136.039,336.38 160.5,361C 180.975,374.879 203.641,382.046 228.5,382.5C 228.5,386.833 228.5,391.167 228.5,395.5C 223.5,395.5 218.5,395.5 213.5,395.5C 186.77,392.756 162.437,383.589 140.5,368C 130.659,360.345 124.326,350.512 121.5,338.5C 121.198,335.627 120.531,332.961 119.5,330.5C 120.958,314.086 128.292,300.919 141.5,291C 150.972,283.93 161.305,278.43 172.5,274.5 Z"/></g>
<g><path style="opacity:1" fill="#4f575f" d="M 193.5,272.5 C 199.493,289.832 210.826,302.499 227.5,310.5C 227.5,311.167 227.833,311.5 228.5,311.5C 228.5,331.833 228.5,352.167 228.5,372.5C 228.167,372.5 227.833,372.5 227.5,372.5C 227.829,366.463 227.496,360.463 226.5,354.5C 219.687,353.237 213.02,351.403 206.5,349C 187.727,341.907 179.227,328.407 181,308.5C 184.484,296.212 188.651,284.212 193.5,272.5 Z"/></g>
<g><path style="opacity:1" fill="#bee4fb" d="M 350.5,284.5 C 349.115,288.938 347.448,293.271 345.5,297.5C 310.773,305.627 275.439,308.96 239.5,307.5C 239.5,310.5 239.5,313.5 239.5,316.5C 239.167,316.5 238.833,316.5 238.5,316.5C 235.167,314.833 231.833,313.167 228.5,311.5C 227.833,311.5 227.5,311.167 227.5,310.5C 228.489,305.025 228.822,299.358 228.5,293.5C 269.646,296.617 310.312,293.617 350.5,284.5 Z"/></g>
<g><path style="opacity:1" fill="#fdfdfe" d="M 167.5,295.5 C 164.631,306.776 161.964,318.11 159.5,329.5C 160.589,341.183 165.922,350.349 175.5,357C 190.07,366.467 206.07,371.634 223.5,372.5C 224.919,373.451 226.585,373.784 228.5,373.5C 228.5,376.5 228.5,379.5 228.5,382.5C 203.641,382.046 180.975,374.879 160.5,361C 136.039,336.38 138.373,314.547 167.5,295.5 Z"/></g>
<g><path style="opacity:1" fill="#688b9c" d="M 228.5,311.5 C 231.833,313.167 235.167,314.833 238.5,316.5C 238.5,335.167 238.5,353.833 238.5,372.5C 235.167,372.5 231.833,372.5 228.5,372.5C 228.5,352.167 228.5,331.833 228.5,311.5 Z"/></g>
<g><path style="opacity:0.832" fill="#fe6060" d="M 44.5,318.5 C 44.5,319.833 44.5,321.167 44.5,322.5C 39.6168,325.631 35.2834,324.964 31.5,320.5C 31.968,318.866 32.968,317.7 34.5,317C 37.1667,316.333 39.8333,316.333 42.5,317C 43.4158,317.278 44.0825,317.778 44.5,318.5 Z"/></g>
<g><path style="opacity:1" fill="#979fa5" d="M 286.5,328.5 C 278.174,328.976 269.84,329.309 261.5,329.5C 261.285,327.821 261.952,326.821 263.5,326.5C 292.855,326.871 321.689,323.204 350,315.5C 352.241,315.68 352.741,316.513 351.5,318C 330.185,323.629 308.518,327.129 286.5,328.5 Z"/></g>
<g><path style="opacity:0.9" fill="#dbe6fa" d="M 44.5,318.5 C 53.8393,318.334 63.1726,318.5 72.5,319C 84.0038,325.92 95.6705,332.586 107.5,339C 109.902,339.814 112.235,339.647 114.5,338.5C 116.193,335.816 117.86,333.149 119.5,330.5C 120.531,332.961 121.198,335.627 121.5,338.5C 119.952,338.821 119.285,339.821 119.5,341.5C 112.085,354.053 111.585,367.053 118,380.5C 124.833,392.667 134.333,402.167 146.5,409C 171.78,422.57 198.78,429.737 227.5,430.5C 231.167,430.5 234.833,430.5 238.5,430.5C 238.5,431.833 238.5,433.167 238.5,434.5C 234.629,434.185 230.962,434.518 227.5,435.5C 205.427,434.752 184.094,430.419 163.5,422.5C 160.5,424.333 157.5,426.167 154.5,428C 163.167,433 171.833,438 180.5,443C 183.218,444.415 183.885,446.415 182.5,449C 175.446,452.858 168.446,456.691 161.5,460.5C 159.847,460.34 158.514,459.674 157.5,458.5C 163.938,454.775 170.271,450.775 176.5,446.5C 167.331,440.748 157.998,435.248 148.5,430C 147.483,428.951 147.316,427.784 148,426.5C 151.441,424.724 154.608,422.557 157.5,420C 144.27,414.223 132.603,406.223 122.5,396C 111.845,394.5 101.178,393.5 90.5,393C 78.4393,400.695 66.106,407.862 53.5,414.5C 52.1667,413.833 51.1667,412.833 50.5,411.5C 63.019,403.828 75.6857,396.328 88.5,389C 98.455,388.736 108.288,389.57 118,391.5C 118.167,391.167 118.333,390.833 118.5,390.5C 107.977,376.063 105.977,360.563 112.5,344C 109.833,343.667 107.167,343.333 104.5,343C 93.1667,336.333 81.8333,329.667 70.5,323C 61.8397,322.5 53.1731,322.334 44.5,322.5C 44.5,321.167 44.5,319.833 44.5,318.5 Z"/></g>
<g><path style="opacity:0.953" fill="#959da3" d="M 347.5,346.5 C 345.421,346.971 343.421,347.637 341.5,348.5C 339.801,348.62 338.135,348.954 336.5,349.5C 334.233,349.441 333.567,348.608 334.5,347C 360.199,341.547 384.532,332.547 407.5,320C 408.944,319.219 410.277,319.386 411.5,320.5C 391.589,332.475 370.256,341.142 347.5,346.5 Z"/></g>
<g><path style="opacity:1" fill="#93acb8" d="M 238.5,316.5 C 238.833,316.5 239.167,316.5 239.5,316.5C 239.5,316.833 239.5,317.167 239.5,317.5C 239.5,335.833 239.5,354.167 239.5,372.5C 239.5,372.833 239.5,373.167 239.5,373.5C 235.833,373.5 232.167,373.5 228.5,373.5C 226.585,373.784 224.919,373.451 223.5,372.5C 224.833,372.5 226.167,372.5 227.5,372.5C 227.833,372.5 228.167,372.5 228.5,372.5C 231.833,372.5 235.167,372.5 238.5,372.5C 238.5,353.833 238.5,335.167 238.5,316.5 Z"/></g>
<g><path style="opacity:0.953" fill="#969da3" d="M 436.5,326.5 C 438.225,326.843 438.725,327.843 438,329.5C 412.161,351.086 382.661,365.753 349.5,373.5C 347.431,373.176 347.098,372.342 348.5,371C 374.199,364.48 398.199,354.147 420.5,340C 426.317,336.011 431.651,331.511 436.5,326.5 Z"/></g>
<g><path style="opacity:1" fill="#dee5e9" d="M 239.5,317.5 C 247.477,320.817 255.477,323.817 263.5,326.5C 261.952,326.821 261.285,327.821 261.5,329.5C 269.84,329.309 278.174,328.976 286.5,328.5C 284.708,329.309 282.708,329.809 280.5,330C 289.441,331.346 298.441,331.846 307.5,331.5C 306.26,338.812 303.26,345.312 298.5,351C 299.793,351.49 301.127,351.657 302.5,351.5C 289.011,353.13 275.345,354.464 261.5,355.5C 271.478,356.499 281.478,356.832 291.5,356.5C 287.397,360.061 282.73,362.894 277.5,365C 265.326,370.044 252.659,372.544 239.5,372.5C 239.5,354.167 239.5,335.833 239.5,317.5 Z"/></g>
<g><path style="opacity:0.983" fill="#cbdbf4" d="M 121.5,338.5 C 124.326,350.512 130.659,360.345 140.5,368C 162.437,383.589 186.77,392.756 213.5,395.5C 211.541,401.75 210.874,408.416 211.5,415.5C 185.445,412.873 161.778,404.04 140.5,389C 125.183,376.864 118.183,361.031 119.5,341.5C 119.285,339.821 119.952,338.821 121.5,338.5 Z"/></g>
<g><path style="opacity:0.999" fill="#edf6fc" d="M 347.5,346.5 C 346.327,364.342 338.661,378.842 324.5,390C 313.723,396.865 303.057,402.698 292.5,407.5C 282.321,408.537 271.988,409.537 261.5,410.5C 266.792,411.495 272.125,411.828 277.5,411.5C 264.993,413.714 252.327,415.381 239.5,416.5C 239.5,409.5 239.5,402.5 239.5,395.5C 259.119,395.41 278.119,391.91 296.5,385C 298.932,383.913 298.598,383.413 295.5,383.5C 303.273,381.783 311.273,380.783 319.5,380.5C 319.5,379.5 319.5,378.5 319.5,377.5C 317.5,377.5 315.5,377.5 313.5,377.5C 317.32,374.53 321.32,371.696 325.5,369C 332.6,363.417 337.934,356.584 341.5,348.5C 343.421,347.637 345.421,346.971 347.5,346.5 Z"/></g>
<g><path style="opacity:1" fill="#90989e" d="M 291.5,356.5 C 281.478,356.832 271.478,356.499 261.5,355.5C 275.345,354.464 289.011,353.13 302.5,351.5C 306.869,351.533 311.202,351.2 315.5,350.5C 315.5,351.5 315.5,352.5 315.5,353.5C 307.39,353.945 299.39,354.945 291.5,356.5 Z"/></g>
<g><path style="opacity:0.953" fill="#fba2a3" d="M 435.5,354.5 C 436.675,354.281 437.675,354.614 438.5,355.5C 424.733,368.58 409.066,378.913 391.5,386.5C 390.692,386.192 390.025,385.692 389.5,385C 404,377.922 417.667,369.589 430.5,360C 432.373,358.296 434.04,356.463 435.5,354.5 Z"/></g>
<g><path style="opacity:1" fill="#faa4a6" d="M 313.5,377.5 C 315.5,377.5 317.5,377.5 319.5,377.5C 319.5,378.5 319.5,379.5 319.5,380.5C 311.273,380.783 303.273,381.783 295.5,383.5C 284.164,383.759 272.831,384.093 261.5,384.5C 261.5,383.5 261.5,382.5 261.5,381.5C 278.998,381.949 296.331,380.616 313.5,377.5 Z"/></g>
<g><path style="opacity:1" fill="#ceedfe" d="M 228.5,373.5 C 232.167,373.5 235.833,373.5 239.5,373.5C 239.5,380.833 239.5,388.167 239.5,395.5C 239.5,402.5 239.5,409.5 239.5,416.5C 239.5,430.833 239.5,445.167 239.5,459.5C 242.385,459.194 245.052,459.527 247.5,460.5C 244.5,460.5 241.5,460.5 238.5,460.5C 238.5,451.833 238.5,443.167 238.5,434.5C 238.5,433.167 238.5,431.833 238.5,430.5C 238.5,425.833 238.5,421.167 238.5,416.5C 238.5,409.5 238.5,402.5 238.5,395.5C 235.167,395.5 231.833,395.5 228.5,395.5C 228.5,391.167 228.5,386.833 228.5,382.5C 228.5,379.5 228.5,376.5 228.5,373.5 Z"/></g>
<g><path style="opacity:0.953" fill="#959da3" d="M 436.5,381.5 C 437.497,381.47 438.164,381.97 438.5,383C 428.007,393.596 416.007,402.263 402.5,409C 379.063,420.368 354.563,428.535 329,433.5C 326.759,433.32 326.259,432.487 327.5,431C 359.496,424.782 389.496,413.448 417.5,397C 424.271,392.293 430.604,387.126 436.5,381.5 Z"/></g>
<g><path style="opacity:1" fill="#b7d1f1" d="M 213.5,395.5 C 218.5,395.5 223.5,395.5 228.5,395.5C 231.833,395.5 235.167,395.5 238.5,395.5C 238.5,402.5 238.5,409.5 238.5,416.5C 234.833,416.5 231.167,416.5 227.5,416.5C 222.167,416.167 216.833,415.833 211.5,415.5C 210.874,408.416 211.541,401.75 213.5,395.5 Z"/></g>
<g><path style="opacity:0.954" fill="#969ea4" d="M 277.5,411.5 C 272.125,411.828 266.792,411.495 261.5,410.5C 271.988,409.537 282.321,408.537 292.5,407.5C 317.56,405.777 342.06,401.11 366,393.5C 366.833,393.833 367.667,394.167 368.5,394.5C 368.167,394.833 367.833,395.167 367.5,395.5C 338.257,405.011 308.257,410.345 277.5,411.5 Z"/></g>
<g><path style="opacity:0.857" fill="#5291ff" d="M 50.5,411.5 C 51.1667,412.833 52.1667,413.833 53.5,414.5C 54.4612,416.438 53.7946,417.938 51.5,419C 48.0357,419.817 44.7024,419.483 41.5,418C 40.1667,416.333 40.1667,414.667 41.5,413C 44.3508,411.711 47.3508,411.211 50.5,411.5 Z"/></g>
<g><path style="opacity:0.391" fill="#95e1fe" d="M 227.5,416.5 C 231.167,416.5 234.833,416.5 238.5,416.5C 238.5,421.167 238.5,425.833 238.5,430.5C 234.833,430.5 231.167,430.5 227.5,430.5C 227.5,425.833 227.5,421.167 227.5,416.5 Z"/></g>
<g><path style="opacity:0.953" fill="#fba2a2" d="M 295.5,434.5 C 298.898,434.18 302.232,434.513 305.5,435.5C 305.291,436.086 304.957,436.586 304.5,437C 290.203,438.377 275.869,439.211 261.5,439.5C 261.5,438.5 261.5,437.5 261.5,436.5C 273.049,436.883 284.382,436.216 295.5,434.5 Z"/></g>
<g><path style="opacity:0.907" fill="#4f565e" d="M 157.5,458.5 C 158.514,459.674 159.847,460.34 161.5,460.5C 161.714,462.144 161.38,463.644 160.5,465C 156.518,467.144 152.685,466.978 149,464.5C 148.202,462.741 148.369,461.074 149.5,459.5C 152.084,458.607 154.751,458.274 157.5,458.5 Z"/></g>
</svg>
